<?xml version="1.0" encoding="UTF-8" standalone="no"?>
<!-- Created with Inkscape (http://www.inkscape.org/) -->

<svg
   xmlns:dc="http://purl.org/dc/elements/1.1/"
   xmlns:cc="http://creativecommons.org/ns#"
   xmlns:rdf="http://www.w3.org/1999/02/22-rdf-syntax-ns#"
   xmlns:svg="http://www.w3.org/2000/svg"
   xmlns="http://www.w3.org/2000/svg"
   xmlns:sodipodi="http://sodipodi.sourceforge.net/DTD/sodipodi-0.dtd"
   xmlns:inkscape="http://www.inkscape.org/namespaces/inkscape"
   width="45.156998"
   height="45.156998"
   id="svg2"
   sodipodi:version="0.32"
   inkscape:version="0.47 r22583"
   version="1.0"
   sodipodi:docname="ppi.svg"
   inkscape:output_extension="org.inkscape.output.svg.inkscape"
   style="display:inline">
  <sodipodi:namedview
     id="base"
     pagecolor="#ffffff"
     bordercolor="#666666"
     borderopacity="1.0"
     gridtolerance="10000"
     guidetolerance="10"
     objecttolerance="10"
     inkscape:pageopacity="0.0"
     inkscape:pageshadow="2"
     inkscape:zoom="0.7"
     inkscape:cx="27.737547"
     inkscape:cy="70.723768"
     inkscape:document-units="px"
     inkscape:current-layer="layer2"
     showgrid="false"
     showguides="false"
     inkscape:guide-bbox="true"
     inkscape:window-width="1022"
     inkscape:window-height="718"
     inkscape:window-x="0"
     inkscape:window-y="24"
     inkscape:window-maximized="0"
     showborder="false"
     inkscape:snap-center="false"
     borderlayer="false">
    <sodipodi:guide
       id="guide3226"
       position="209.28571,176.42856"
       orientation="0,1" />
    <sodipodi:guide
       id="guide3228"
       position="176.42513,354.94173"
       orientation="1,0" />
  </sodipodi:namedview>
  <defs
     id="defs4">
    <inkscape:perspective
       id="perspective2918"
       inkscape:persp3d-origin="180 : 120.5 : 1"
       inkscape:vp_z="360 : 180.75 : 1"
       inkscape:vp_y="0 : 1000 : 0"
       inkscape:vp_x="0 : 180.75 : 1"
       sodipodi:type="inkscape:persp3d" />
  </defs>
  <metadata
     id="metadata7">
    <rdf:RDF>
      <cc:Work
         rdf:about="">
        <dc:format>image/svg+xml</dc:format>
        <dc:type
           rdf:resource="http://purl.org/dc/dcmitype/StillImage" />
      </cc:Work>
    </rdf:RDF>
  </metadata>
  <g
     style="display:inline"
     inkscape:label="v"
     id="layer2"
     inkscape:groupmode="layer"
     transform="translate(-3.5714342,-310.6287)">
    <path
       transform="matrix(0.15495049,0,0,0.15495049,-1.741155,305.74776)"
       d="m 325.71428,177.21428 c 0,80.47577 -65.23851,145.71428 -145.71428,145.71428 -80.475774,0 -145.714279,-65.23851 -145.714279,-145.71428 C 34.285721,96.738505 99.524226,31.5 180,31.5 c 80.47577,0 145.71428,65.238505 145.71428,145.71428 z"
       sodipodi:ry="145.71428"
       sodipodi:rx="145.71428"
       sodipodi:cy="177.21428"
       sodipodi:cx="180"
       id="path2454"
       style="fill:#000000;fill-opacity:1;fill-rule:evenodd;stroke:none"
       sodipodi:type="arc" />
    <path
       id="path4110"
       d="m 5.8978427,327.29462 c -0.5474526,1.87623 -0.8398386,3.85863 -0.8398386,5.91087 0,6.28685 2.754684,11.93569 7.1226299,15.80098 l 1.819647,-1.93162 c -3.855052,-3.38093 -6.2907888,-8.34276 -6.2907888,-13.86936 0,-1.79966 0.2584621,-3.5382 0.7398583,-5.18296 l -2.5515078,-0.72791 z"
       style="fill:#e6e6e6;fill-opacity:1;fill-rule:evenodd;stroke:none" />
    <path
       id="path4105"
       d="m 43.462593,321.16381 -2.167578,1.52775 c 2.076607,2.98387 3.295369,6.60561 3.295369,10.51393 0,10.17986 -8.260619,18.44444 -18.440446,18.44444 -4.64516,0 -8.889957,-1.72123 -12.133661,-4.55912 l -1.723667,2.01561 c 3.706982,3.23403 8.555275,5.19102 13.857328,5.19102 11.642698,0 21.091943,-9.44926 21.091943,-21.09195 0,-4.47648 -1.3979,-8.62611 -3.779288,-12.04168 z"
       style="fill:#e6e6e6;fill-opacity:1;fill-rule:evenodd;stroke:none" />
    <path
       sodipodi:nodetypes="css"
       id="path4172"
       d="m 6.0833668,327.12869 c 2.607419,-8.61015 10.6087862,-14.88402 20.0665712,-14.88402 7.090562,0 13.36251,3.52626 17.156698,8.91964"
       style="fill:none;stroke:#e6e6e6;stroke-width:0.25595072;stroke-linecap:butt;stroke-linejoin:miter;stroke-miterlimit:4;stroke-opacity:1;stroke-dasharray:none;stroke-dashoffset:0" />
    <path
       sodipodi:nodetypes="cccccc"
       id="path4087"
       d="m 28.805845,333.89401 -1.431751,1.67965 2.701206,2.20359 c 0.835469,0.73611 7.473151,5.22458 8.514355,5.20298 0.09444,-0.93931 -5.90391,-6.00623 -6.96662,-6.78665 l -2.81719,-2.29957 z"
       style="fill:#e6e6e6;fill-opacity:1;fill-rule:evenodd;stroke:none" />
    <path
       sodipodi:nodetypes="cccscccssccsccc"
       id="path4067"
       d="m 38.589655,342.98023 c 0.09444,-0.93931 -5.90391,-6.00623 -6.96662,-6.78665 l -3.824974,-3.12342 c -0.06963,-0.84591 -0.775932,-1.51174 -1.639719,-1.51174 -0.0638,0 -0.125998,0.01 -0.187963,0.012 l -2.531504,-2.0716 c -0.09198,-0.82292 -0.788364,-1.46371 -1.635691,-1.46371 -0.909855,0 -1.64769,0.73781 -1.647691,1.64767 0,0.90983 0.737836,1.65169 1.647691,1.65168 0.118187,0 0.232794,-0.0165 0.343933,-0.0398 l 2.36352,1.93564 c 0.01306,0.89863 0.745963,1.62363 1.647705,1.62363 0.104042,0 0.205237,-0.01 0.303939,-0.0281 l 3.613019,2.95142 c 0.835469,0.73611 7.473151,5.22462 8.514355,5.20304 z"
       style="fill:#ffffff;fill-opacity:1;fill-rule:evenodd;stroke:#e6e6e6;stroke-width:0.25595072;stroke-linecap:butt;stroke-linejoin:miter;stroke-miterlimit:4;stroke-opacity:1;stroke-dasharray:none;stroke-dashoffset:0" />
    <path
       transform="matrix(0.01756522,0,0,0.01756522,23.606936,330.72549)"
       d="m 158.08887,141.28674 c 0,7.11312 -5.76632,12.87945 -12.87944,12.87945 -7.11312,0 -12.87945,-5.76633 -12.87945,-12.87945 0,-7.11312 5.76633,-12.87944 12.87945,-12.87944 7.11312,0 12.87944,5.76632 12.87944,12.87944 z"
       sodipodi:ry="12.879445"
       sodipodi:rx="12.879445"
       sodipodi:cy="141.28674"
       sodipodi:cx="145.20943"
       id="path4071"
       style="fill:#e6e6e6;fill-opacity:1;fill-rule:evenodd;stroke:none"
       sodipodi:type="arc" />
    <path
       sodipodi:nodetypes="cc"
       id="path4097"
       d="M 10.206428,328.56951 5.8874015,327.3207"
       style="fill:#e6e6e6;fill-opacity:1;fill-rule:evenodd;stroke:#f6f3f3;stroke-width:0.7678529;stroke-linecap:butt;stroke-linejoin:miter;stroke-miterlimit:4;stroke-opacity:1;stroke-dasharray:none;stroke-dashoffset:0" />
    <path
       d="m 18.261987,317.72365 -1.679156,-3.29627 m -2.061461,5.87505 -2.472013,-2.74338 M 11.527902,323.823 8.4121797,321.82327 M 9.739085,327.49596 6.2477188,326.2809 M 8.9005999,331.08641 5.229166,330.635 m 3.7471448,5.18714 -3.6552809,0.55658 m 5.0381931,4.08365 -3.3593722,1.54353 m 6.0808932,2.64605 -2.782249,2.43649 m 6.396855,0.70362 -2.008617,3.09868 m 6.229706,-1.09884 -1.113965,3.53048 m 5.995522,-2.7434 -0.07484,3.69902 m 5.229446,-4.36745 1.022377,3.55544 m 3.83485,-5.80409 2.055311,3.07538 m 1.834696,-6.64655 2.883115,2.31572 m -0.304649,-6.7189 3.431508,1.37872 m -2.255749,-6.18675 3.687197,0.35629 m -3.946792,-5.48074 3.627786,-0.73474 m -5.162115,-3.64091 3.303978,-1.66738 m -5.926802,-2.14778 2.742386,-2.4775 m -5.349238,0.12087 2.188002,-2.97943 m -7.548537,0.30843 1.048267,-3.55167 m 1.412561,4.49535 1.571403,-3.34816 m 0.431904,3.22005 1.347346,-2.2763 m 1.495143,4.3514 1.756416,-1.97948 m 1.140371,5.23044 2.176173,-1.515 m 0.05817,5.86711 2.49574,-0.88808 m -1.472366,5.8621 2.643551,-0.17298 m -3.110689,5.69123 2.571862,0.61956 m -4.524685,4.27219 2.292523,1.32242 m -5.623087,2.87904 1.8158,1.92757 m -6.464181,1.26606 1.147821,2.38724 m -6.45993,-0.76416 0.384346,2.62299 m -5.996329,-2.65999 -0.422386,2.6118 m -8.783291,-6.95222 -1.747285,1.99196 m -1.556043,-5.79804 -2.2227665,1.44465 m -0.01077,-6.28525 -2.5432877,0.74806 m 1.7883605,-5.94933 -2.6512589,0 m 4.5831001,-8.17631 -2.3718792,-1.17482 m 4.7594167,-2.49652 -2.02873,-1.70232 m 5.620169,-1.57589 -1.511519,-2.17163 m 5.808076,-0.0359 -0.896995,-2.49505 m -0.904948,36.40732 -1.154983,2.38359 m 4.417368,-39.52988 0.844327,3.63981 m 10.441043,-0.32365 0.927034,-2.45504"
       style="fill:#4d4d4d;fill-opacity:1;fill-rule:evenodd;stroke:#e6e6e6;stroke-width:0.38392645;stroke-linecap:butt;stroke-linejoin:miter;stroke-miterlimit:4;stroke-opacity:1;stroke-dasharray:none;stroke-dashoffset:0"
       id="path3969" />
    <path
       id="path4099"
       d="m 39.823344,320.83589 -1.399819,1.26775 c 2.658803,2.93709 4.279229,6.83112 4.279229,11.10185 0,2.16764 -0.417122,4.24104 -1.175787,6.13885 l 1.751662,0.69984 c 0.84535,-2.11448 1.311755,-4.42353 1.311755,-6.83869 0,-4.75849 -1.804514,-9.09723 -4.76704,-12.3696 z"
       style="fill:#e6e6e6;fill-opacity:1;fill-rule:evenodd;stroke:none" />
    <g
       id="g4188"
       style="fill:#ffffff"
       transform="matrix(0.12797532,0,0,0.12797532,3.1143786,310.25392)">
      <path
         transform="scale(0.9370289,1.067203)"
         style="font-size:34.8878746px;font-style:normal;font-variant:normal;font-weight:normal;font-stretch:normal;fill:#ffffff;fill-opacity:1;stroke:none;font-family:Arial;-inkscape-font-specification:Arial"
         d="m 90.349514,117.30066 0,2.94707 -16.507007,0 c -0.02271,-0.73819 0.09653,-1.44799 0.357737,-2.12939 0.420197,-1.12431 1.090244,-2.23159 2.010141,-3.32184 0.931248,-1.09024 2.271341,-2.35084 4.020283,-3.7818 2.714248,-2.2259 4.548358,-3.98619 5.502335,-5.28087 0.953952,-1.30601 1.430934,-2.53822 1.430948,-3.69662 -1.4e-5,-1.21515 -0.437248,-2.237256 -1.311702,-3.066317 -0.863124,-0.840376 -1.993117,-1.260575 -3.389984,-1.260597 -1.476383,2.2e-5 -2.657482,0.442934 -3.5433,1.328737 -0.88583,0.885845 -1.33442,2.112367 -1.345772,3.679577 L 74.4217,102.39495 c 0.215776,-2.35083 1.027782,-4.139509 2.436019,-5.366058 1.408229,-1.237859 3.299123,-1.8568 5.672687,-1.856825 2.396257,2.5e-5 4.292829,0.664393 5.689721,1.993106 1.396861,1.328759 2.095299,2.975487 2.095317,4.940177 -1.8e-5,0.99941 -0.204439,1.98177 -0.613263,2.94707 -0.408859,0.96534 -1.090262,1.98176 -2.044212,3.04928 -0.942622,1.06755 -2.515528,2.53256 -4.718721,4.39506 -1.839799,1.54452 -3.020898,2.59502 -3.5433,3.15149 -0.522416,0.54513 -0.953971,1.09593 -1.294667,1.65241 l 12.248233,0 m 19.420006,0 0,2.94707 -16.507005,0 c -0.02271,-0.73819 0.09653,-1.44799 0.357737,-2.12939 0.420197,-1.12431 1.090243,-2.23159 2.010141,-3.32184 0.931247,-1.09024 2.27134,-2.35084 4.020282,-3.7818 2.714245,-2.2259 4.548355,-3.98619 5.502335,-5.28087 0.95395,-1.30601 1.43093,-2.53822 1.43095,-3.69662 -2e-5,-1.21515 -0.43725,-2.237256 -1.3117,-3.066317 -0.86313,-0.840376 -1.99312,-1.260575 -3.38999,-1.260597 -1.47638,2.2e-5 -2.657479,0.442934 -3.543297,1.328737 -0.88583,0.885845 -1.33442,2.112367 -1.345772,3.679577 l -3.151493,-0.32366 c 0.215776,-2.35083 1.027781,-4.139509 2.436019,-5.366058 1.408229,-1.237859 3.299122,-1.8568 5.672683,-1.856825 2.39626,2.5e-5 4.29283,0.664393 5.68972,1.993106 1.39687,1.328759 2.0953,2.975487 2.09532,4.940177 -2e-5,0.99941 -0.20444,1.98177 -0.61326,2.94707 -0.40886,0.96534 -1.09026,1.98176 -2.04421,3.04928 -0.94263,1.06755 -2.51553,2.53256 -4.71872,4.39506 -1.8398,1.54452 -3.020902,2.59502 -3.543304,3.15149 -0.522416,0.54513 -0.953971,1.09593 -1.294667,1.65241 l 12.248231,0 m 3.30481,-9.36931 c 0,-2.95273 0.30095,-5.32629 0.90286,-7.12067 0.61326,-1.805696 1.51612,-3.196894 2.70858,-4.173595 1.20381,-0.976654 2.71425,-1.464993 4.53134,-1.465018 1.34008,2.5e-5 2.5155,0.272586 3.52626,0.817684 1.01073,0.53379 1.84545,1.311725 2.50416,2.333808 0.65867,1.01077 1.1754,2.248651 1.55019,3.713651 0.37476,1.45368 0.56214,3.41839 0.56216,5.89414 -2e-5,2.93005 -0.30097,5.29792 -0.90286,7.10364 -0.60192,1.79436 -1.50478,3.18556 -2.70858,4.1736 -1.19247,0.97667 -2.70291,1.46501 -4.53133,1.46501 -2.40764,0 -4.29853,-0.86311 -5.67269,-2.58933 -1.64673,-2.07828 -2.47009,-5.46258 -2.47009,-10.15292 m 3.15149,0 c 0,4.09979 0.47698,6.83108 1.43095,8.19388 0.96532,1.35146 2.15209,2.02718 3.56034,2.02718 1.40822,0 2.58932,-0.6814 3.54329,-2.04421 0.96531,-1.3628 1.44797,-4.08842 1.44799,-8.17685 -2e-5,-4.11112 -0.48268,-6.84241 -1.44799,-8.193878 -0.95397,-1.351429 -2.14643,-2.027154 -3.57737,-2.027176 -1.40824,2.2e-5 -2.53255,0.59625 -3.37294,1.788685 -1.05618,1.521819 -1.58427,4.332609 -1.58427,8.432369"
         id="text4126" />
      <path
         transform="scale(0.9370289,1.067203)"
         style="font-size:34.8878746px;font-style:normal;font-variant:normal;font-weight:normal;font-stretch:normal;fill:#ffffff;fill-opacity:1;stroke:none;font-family:Arial;-inkscape-font-specification:Arial"
         d="m 75.10376,165.78506 0,2.94707 -16.507007,0 c -0.02271,-0.73818 0.09653,-1.44798 0.357737,-2.12938 0.420197,-1.12432 1.090243,-2.2316 2.010141,-3.32185 0.931248,-1.09024 2.27134,-2.35083 4.020282,-3.78179 2.714249,-2.22591 4.548359,-3.9862 5.502336,-5.28088 0.953952,-1.30601 1.430934,-2.53821 1.430948,-3.69661 -1.4e-5,-1.21516 -0.437248,-2.23726 -1.311702,-3.06632 -0.863124,-0.84038 -1.993117,-1.26058 -3.389984,-1.2606 -1.476383,2e-5 -2.657482,0.44294 -3.5433,1.32874 -0.88583,0.88584 -1.33442,2.11237 -1.345772,3.67958 l -3.151493,-0.32367 c 0.215776,-2.35082 1.027781,-4.1395 2.436019,-5.36605 1.408229,-1.23786 3.299122,-1.8568 5.672686,-1.85683 2.396258,3e-5 4.29283,0.6644 5.689722,1.99311 1.396861,1.32876 2.095299,2.97548 2.095317,4.94018 -1.8e-5,0.99941 -0.204439,1.98176 -0.613264,2.94707 -0.408858,0.96533 -1.090262,1.98176 -2.044211,3.04928 -0.942623,1.06754 -2.515528,2.53256 -4.718721,4.39505 -1.839799,1.54453 -3.020898,2.59502 -3.5433,3.1515 -0.522416,0.54512 -0.953971,1.09592 -1.294667,1.6524 l 12.248233,0 m 3.304808,-9.3693 c -2e-6,-2.95274 0.300951,-5.32629 0.90286,-7.12067 0.61326,-1.8057 1.516119,-3.1969 2.70858,-4.1736 1.203807,-0.97665 2.714251,-1.46499 4.531335,-1.46502 1.340083,3e-5 2.515504,0.27259 3.526265,0.81769 1.010735,0.53379 1.845453,1.31172 2.504159,2.3338 0.658674,1.01077 1.175405,2.24866 1.550193,3.71366 0.374755,1.45367 0.562141,3.41839 0.562159,5.89414 -1.8e-5,2.93004 -0.300971,5.29792 -0.90286,7.10363 -0.601923,1.79437 -1.504783,3.18557 -2.708581,4.1736 -1.192469,0.97668 -2.702913,1.46502 -4.531335,1.46502 -2.407634,0 -4.298527,-0.86311 -5.672687,-2.58934 -1.646728,-2.07827 -2.47009,-5.46257 -2.470088,-10.15291 m 3.151492,0 c -4e-6,4.09979 0.476978,6.83108 1.430948,8.19388 0.965315,1.35145 2.152092,2.02718 3.560335,2.02718 1.408224,0 2.589322,-0.68141 3.5433,-2.04422 0.965308,-1.3628 1.447968,-4.08841 1.447983,-8.17684 -1.5e-5,-4.11112 -0.482675,-6.84241 -1.447983,-8.19388 -0.953978,-1.35143 -2.146433,-2.02716 -3.57737,-2.02718 -1.408243,2e-5 -2.532558,0.59625 -3.372949,1.78869 -1.056181,1.52182 -1.584268,4.33261 -1.584264,8.43237 m 16.268515,0 c -10e-7,-2.95274 0.300952,-5.32629 0.90286,-7.12067 0.613261,-1.8057 1.516125,-3.1969 2.708585,-4.1736 1.2038,-0.97665 2.71425,-1.46499 4.53133,-1.46502 1.34008,3e-5 2.5155,0.27259 3.52627,0.81769 1.01073,0.53379 1.84545,1.31172 2.50415,2.3338 0.65868,1.01077 1.17541,2.24866 1.5502,3.71366 0.37475,1.45367 0.56214,3.41839 0.56216,5.89414 -2e-5,2.93004 -0.30097,5.29792 -0.90286,7.10363 -0.60193,1.79437 -1.50479,3.18557 -2.70858,4.1736 -1.19247,0.97668 -2.70292,1.46502 -4.53134,1.46502 -2.40763,0 -4.29853,-0.86311 -5.67269,-2.58934 -1.646724,-2.07827 -2.470086,-5.46257 -2.470085,-10.15291 m 3.151495,0 c -1e-5,4.09979 0.47698,6.83108 1.43095,8.19388 0.96531,1.35145 2.15209,2.02718 3.56033,2.02718 1.40822,0 2.58932,-0.68141 3.5433,-2.04422 0.96531,-1.3628 1.44797,-4.08841 1.44798,-8.17684 -1e-5,-4.11112 -0.48267,-6.84241 -1.44798,-8.19388 -0.95398,-1.35143 -2.14643,-2.02716 -3.57737,-2.02718 -1.40824,2e-5 -2.53256,0.59625 -3.37295,1.78869 -1.05618,1.52182 -1.58427,4.33261 -1.58426,8.43237"
         id="text4130" />
      <path
         transform="scale(0.9370289,1.067203)"
         style="font-size:34.8878746px;font-style:normal;font-variant:normal;font-weight:normal;font-stretch:normal;fill:#ffffff;fill-opacity:1;stroke:none;font-family:Arial;-inkscape-font-specification:Arial"
         d="m 73.968652,223.94991 -3.066317,0 0,-19.53926 c -0.738196,0.70414 -1.709196,1.40825 -2.913001,2.11235 -1.192463,0.70414 -2.265672,1.23222 -3.219633,1.58427 l 0,-2.96411 c 1.714861,-0.80631 3.213948,-1.78299 4.497265,-2.93004 1.283301,-1.147 2.191838,-2.25996 2.725615,-3.33887 l 1.976071,0 0,25.07566 M 86.557587,210.407 c -1.271959,-0.46561 -2.214566,-1.12998 -2.827826,-1.9931 -0.613266,-0.8631 -0.919897,-1.89656 -0.919895,-3.10039 -2e-6,-1.81705 0.653009,-3.34453 1.959036,-4.58244 1.306018,-1.23786 3.043596,-1.8568 5.212739,-1.85682 2.18048,2e-5 3.935093,0.636 5.263844,1.90793 1.328722,1.26062 1.99309,2.79945 1.993106,4.61651 -1.6e-5,1.1584 -0.306648,2.16915 -0.919895,3.03224 -0.601922,0.85177 -1.521816,1.51046 -2.759685,1.97607 1.533144,0.49971 2.697207,1.30604 3.492194,2.41899 0.806311,1.11297 1.209474,2.4417 1.209492,3.98621 -1.8e-5,2.13507 -0.755239,3.92943 -2.265667,5.38309 -1.51046,1.45366 -3.497885,2.18049 -5.962284,2.18049 -2.464417,0 -4.451843,-0.72683 -5.962283,-2.18049 -1.510447,-1.46501 -2.265669,-3.28777 -2.265668,-5.46826 -10e-7,-1.62401 0.408841,-2.98114 1.226527,-4.07139 0.829038,-1.10159 2.004458,-1.85114 3.526265,-2.24864 m -0.613264,-5.1957 c -5e-6,1.18112 0.380445,2.14644 1.141352,2.89597 0.760893,0.74956 1.748928,1.12433 2.964106,1.12431 1.181089,2e-5 2.146411,-0.36908 2.895967,-1.10728 0.760887,-0.74953 1.141337,-1.66374 1.141351,-2.74265 -1.4e-5,-1.12429 -0.391821,-2.0669 -1.175422,-2.82782 -0.772269,-0.77224 -1.73759,-1.15837 -2.895966,-1.15839 -1.169751,2e-5 -2.140751,0.37479 -2.913001,1.12432 -0.772264,0.74956 -1.158392,1.64674 -1.158387,2.69154 m -0.988035,11.53276 c -5e-6,0.87447 0.204416,1.72055 0.613263,2.53823 0.420194,0.81769 1.039135,1.45366 1.856826,1.90793 0.817676,0.44291 1.697822,0.66437 2.640439,0.66437 1.465007,0 2.674498,-0.4713 3.628476,-1.41391 0.953951,-0.94261 1.430933,-2.14074 1.430948,-3.59441 -1.5e-5,-1.47637 -0.494032,-2.69721 -1.482054,-3.66254 -0.976691,-0.96531 -2.203216,-1.44798 -3.67958,-1.44799 -1.442313,1e-5 -2.640447,0.477 -3.594405,1.43095 -0.942614,0.95398 -1.413918,2.14643 -1.413913,3.57737 m 16.370732,-5.11053 c -1e-5,-2.95273 0.30095,-5.32629 0.90286,-7.12067 0.61326,-1.8057 1.51611,-3.19689 2.70858,-4.1736 1.2038,-0.97665 2.71425,-1.46499 4.53133,-1.46501 1.34008,2e-5 2.5155,0.27258 3.52627,0.81768 1.01073,0.53379 1.84545,1.31173 2.50415,2.33381 0.65868,1.01077 1.17541,2.24865 1.5502,3.71365 0.37475,1.45368 0.56214,3.41839 0.56216,5.89414 -2e-5,2.93005 -0.30097,5.29792 -0.90286,7.10364 -0.60193,1.79436 -1.50479,3.18556 -2.70858,4.17359 -1.19247,0.97668 -2.70292,1.46502 -4.53134,1.46502 -2.40763,0 -4.29853,-0.86311 -5.67269,-2.58933 -1.64672,-2.07828 -2.47009,-5.46258 -2.47008,-10.15292 m 3.15149,0 c -1e-5,4.09979 0.47698,6.83108 1.43095,8.19388 0.96531,1.35146 2.15209,2.02718 3.56033,2.02718 1.40822,0 2.58932,-0.6814 3.5433,-2.04421 0.96531,-1.3628 1.44797,-4.08842 1.44798,-8.17685 -1e-5,-4.11112 -0.48267,-6.84241 -1.44798,-8.19388 -0.95398,-1.35143 -2.14643,-2.02715 -3.57737,-2.02718 -1.40824,3e-5 -2.53256,0.59625 -3.37295,1.78869 -1.05618,1.52182 -1.58427,4.33261 -1.58426,8.43237"
         id="text4134" />
      <path
         transform="scale(0.9370289,1.067203)"
         style="font-size:34.8878746px;font-style:normal;font-variant:normal;font-weight:normal;font-stretch:normal;fill:#ffffff;fill-opacity:1;stroke:none;font-family:Arial;-inkscape-font-specification:Arial"
         d="m 110.93961,264.44293 -3.06632,0 0,-19.53925 c -0.73819,0.70413 -1.70919,1.40825 -2.913,2.11235 -1.19246,0.70413 -2.26567,1.23222 -3.21963,1.58426 l 0,-2.9641 c 1.71486,-0.80631 3.21395,-1.78299 4.49726,-2.93004 1.28331,-1.14701 2.19184,-2.25996 2.72562,-3.33888 l 1.97607,0 0,25.07566 m 23.78099,-18.85785 -3.04928,0.23849 c -0.27257,-1.20379 -0.6587,-2.07826 -1.15839,-2.6234 -0.82905,-0.87445 -1.85115,-1.31168 -3.06631,-1.3117 -0.97669,2e-5 -1.83412,0.27258 -2.5723,0.81768 -0.96533,0.70414 -1.72623,1.73192 -2.2827,3.08335 -0.55649,1.35147 -0.84609,3.27644 -0.86879,5.7749 0.73818,-1.1243 1.64104,-1.95902 2.70858,-2.50416 1.06752,-0.54511 2.18616,-0.81767 3.35591,-0.81768 2.0442,1e-5 3.78178,0.75523 5.21274,2.26566 1.44229,1.49911 2.16344,3.4411 2.16346,5.82601 -2e-5,1.56723 -0.34072,3.02657 -1.02211,4.37802 -0.67006,1.34009 -1.59564,2.36788 -2.77672,3.08335 -1.18111,0.71547 -2.52121,1.07321 -4.02028,1.07321 -2.55527,0 -4.63923,-0.93693 -6.25188,-2.81079 -1.61266,-1.88521 -2.41899,-4.9856 -2.41899,-9.30116 0,-4.8266 0.8915,-8.33582 2.67451,-10.52769 1.55587,-1.90791 3.65118,-2.86187 6.28595,-2.8619 1.96471,3e-5 3.57168,0.55083 4.82094,1.65241 1.26058,1.10162 2.0158,2.62342 2.26566,4.5654 m -12.52079,10.76618 c -1e-5,1.05618 0.22145,2.06693 0.66437,3.03225 0.45426,0.96533 1.08456,1.70351 1.89089,2.21456 0.80632,0.4997 1.6524,0.74955 2.53823,0.74955 1.29466,0 2.40762,-0.52241 3.33888,-1.56723 0.93124,-1.04482 1.39686,-2.46441 1.39688,-4.25878 -2e-5,-1.72621 -0.45996,-3.08334 -1.37984,-4.07138 -0.91991,-0.99938 -2.0783,-1.49908 -3.47516,-1.49909 -1.38553,1e-5 -2.56095,0.49971 -3.52627,1.49909 -0.96533,0.98804 -1.44799,2.28839 -1.44798,3.90103 m 16.03002,-4.2247 c 0,-2.95274 0.30095,-5.32629 0.90286,-7.12067 0.61326,-1.8057 1.51612,-3.1969 2.70858,-4.1736 1.20381,-0.97665 2.71425,-1.46499 4.53134,-1.46502 1.34008,3e-5 2.5155,0.27259 3.52626,0.81769 1.01074,0.53379 1.84546,1.31172 2.50416,2.3338 0.65868,1.01077 1.17541,2.24866 1.55019,3.71366 0.37476,1.45367 0.56215,3.41839 0.56216,5.89414 -1e-5,2.93004 -0.30097,5.29792 -0.90286,7.10363 -0.60192,1.79437 -1.50478,3.18557 -2.70858,4.1736 -1.19247,0.97668 -2.70291,1.46502 -4.53133,1.46502 -2.40764,0 -4.29853,-0.86311 -5.67269,-2.58933 -1.64673,-2.07828 -2.47009,-5.46258 -2.47009,-10.15292 m 3.15149,0 c 0,4.09979 0.47698,6.83108 1.43095,8.19388 0.96532,1.35145 2.15209,2.02718 3.56034,2.02718 1.40822,0 2.58932,-0.68141 3.5433,-2.04422 0.96531,-1.3628 1.44797,-4.08841 1.44798,-8.17684 -1e-5,-4.11112 -0.48267,-6.84241 -1.44798,-8.19388 -0.95398,-1.35143 -2.14644,-2.02716 -3.57737,-2.02718 -1.40825,2e-5 -2.53256,0.59625 -3.37295,1.78869 -1.05618,1.52182 -1.58427,4.33261 -1.58427,8.43237"
         id="text4138" />
      <path
         transform="scale(0.9370289,1.067203)"
         style="font-size:34.8878746px;font-style:normal;font-variant:normal;font-weight:normal;font-stretch:normal;fill:#ffffff;fill-opacity:1;stroke:none;font-family:Arial;-inkscape-font-specification:Arial"
         d="m 177.25866,278.83304 -3.06632,0 0,-19.53926 c -0.7382,0.70414 -1.7092,1.40826 -2.913,2.11236 -1.19246,0.70413 -2.26567,1.23222 -3.21963,1.58426 l 0,-2.96411 c 1.71486,-0.8063 3.21394,-1.78298 4.49726,-2.93003 1.2833,-1.14701 2.19184,-2.25997 2.72562,-3.33888 l 1.97607,0 0,25.07566 m 17.69946,0 0,-5.97932 -10.83432,0 0,-2.81079 11.39648,-16.18334 2.50416,0 0,16.18334 3.37295,0 0,2.81079 -3.37295,0 0,5.97932 -3.06632,0 m 0,-8.79011 0,-11.2602 -7.81911,11.2602 7.81911,0 m 9.59076,-3.52627 c 0,-2.95273 0.30095,-5.32628 0.90286,-7.12067 0.61326,-1.80569 1.51612,-3.19689 2.70858,-4.17359 1.20381,-0.97666 2.71425,-1.465 4.53133,-1.46502 1.34009,2e-5 2.51551,0.27258 3.52627,0.81768 1.01073,0.53379 1.84545,1.31173 2.50416,2.33381 0.65867,1.01077 1.1754,2.24865 1.55019,3.71365 0.37476,1.45368 0.56214,3.41839 0.56216,5.89414 -2e-5,2.93005 -0.30097,5.29793 -0.90286,7.10364 -0.60192,1.79437 -1.50478,3.18556 -2.70858,4.1736 -1.19247,0.97668 -2.70291,1.46502 -4.53134,1.46502 -2.40763,0 -4.29852,-0.86312 -5.67268,-2.58934 -1.64673,-2.07828 -2.47009,-5.46258 -2.47009,-10.15292 m 3.15149,0 c 0,4.09979 0.47698,6.83108 1.43095,8.19389 0.96531,1.35145 2.15209,2.02717 3.56033,2.02717 1.40823,0 2.58933,-0.6814 3.5433,-2.04421 0.96531,-1.3628 1.44797,-4.08841 1.44799,-8.17685 -2e-5,-4.11112 -0.48268,-6.84241 -1.44799,-8.19388 -0.95397,-1.35143 -2.14643,-2.02715 -3.57737,-2.02717 -1.40824,2e-5 -2.53255,0.59625 -3.37295,1.78868 -1.05618,1.52182 -1.58426,4.33261 -1.58426,8.43237"
         id="text4142" />
      <path
         transform="scale(0.9370289,1.067203)"
         style="font-size:34.8878746px;font-style:normal;font-variant:normal;font-weight:normal;font-stretch:normal;fill:#ffffff;fill-opacity:1;stroke:none;font-family:Arial;-inkscape-font-specification:Arial"
         d="m 243.5777,263.10434 -3.06631,0 0,-19.53925 c -0.7382,0.70413 -1.7092,1.40825 -2.91301,2.11235 -1.19246,0.70413 -2.26567,1.23222 -3.21963,1.58426 l 0,-2.96411 c 1.71486,-0.8063 3.21395,-1.78298 4.49727,-2.93003 1.2833,-1.14701 2.19184,-2.25997 2.72561,-3.33888 l 1.97607,0 0,25.07566 m 23.98542,-2.94707 0,2.94707 -16.50701,0 c -0.0227,-0.73819 0.0965,-1.44798 0.35774,-2.12939 0.42019,-1.12431 1.09024,-2.23159 2.01014,-3.32184 0.93124,-1.09024 2.27134,-2.35084 4.02028,-3.78179 2.71425,-2.22591 4.54836,-3.9862 5.50234,-5.28088 0.95395,-1.30601 1.43093,-2.53821 1.43094,-3.69662 -10e-6,-1.21515 -0.43724,-2.23725 -1.3117,-3.06631 -0.86312,-0.84038 -1.99312,-1.26058 -3.38998,-1.2606 -1.47639,2e-5 -2.65748,0.44293 -3.5433,1.32874 -0.88583,0.88584 -1.33442,2.11237 -1.34578,3.67958 l -3.15149,-0.32367 c 0.21578,-2.35082 1.02778,-4.13951 2.43602,-5.36605 1.40823,-1.23786 3.29912,-1.85681 5.67269,-1.85683 2.39626,2e-5 4.29283,0.66439 5.68972,1.99311 1.39686,1.32876 2.0953,2.97548 2.09532,4.94017 -2e-5,0.99941 -0.20444,1.98177 -0.61327,2.94707 -0.40886,0.96534 -1.09026,1.98177 -2.04421,3.04929 -0.94262,1.06754 -2.51553,2.53256 -4.71872,4.39505 -1.8398,1.54452 -3.0209,2.59502 -3.5433,3.15149 -0.52242,0.54513 -0.95397,1.09593 -1.29467,1.65241 l 12.24824,0 m 3.3048,-9.3693 c 0,-2.95274 0.30096,-5.32629 0.90286,-7.12067 0.61326,-1.8057 1.51612,-3.1969 2.70858,-4.1736 1.20381,-0.97666 2.71425,-1.465 4.53134,-1.46502 1.34008,2e-5 2.5155,0.27259 3.52626,0.81768 1.01074,0.53379 1.84546,1.31173 2.50416,2.33381 0.65868,1.01077 1.17541,2.24865 1.5502,3.71365 0.37475,1.45368 0.56214,3.41839 0.56215,5.89415 -1e-5,2.93004 -0.30097,5.29792 -0.90286,7.10363 -0.60192,1.79437 -1.50478,3.18557 -2.70858,4.1736 -1.19246,0.97668 -2.70291,1.46502 -4.53133,1.46502 -2.40763,0 -4.29853,-0.86311 -5.67269,-2.58934 -1.64673,-2.07827 -2.47009,-5.46258 -2.47009,-10.15291 m 3.1515,0 c -1e-5,4.09978 0.47697,6.83107 1.43094,8.19388 0.96532,1.35145 2.1521,2.02718 3.56034,2.02717 1.40822,10e-6 2.58932,-0.6814 3.5433,-2.04421 0.96531,-1.3628 1.44797,-4.08841 1.44798,-8.17684 -1e-5,-4.11112 -0.48267,-6.84241 -1.44798,-8.19388 -0.95398,-1.35143 -2.14643,-2.02716 -3.57737,-2.02718 -1.40824,2e-5 -2.53256,0.59625 -3.37295,1.78868 -1.05618,1.52182 -1.58427,4.33261 -1.58426,8.43238"
         id="text4146" />
      <path
         transform="scale(0.9370289,1.067203)"
         style="font-size:34.8878746px;font-style:normal;font-variant:normal;font-weight:normal;font-stretch:normal;fill:#ffffff;fill-opacity:1;stroke:none;font-family:Arial;-inkscape-font-specification:Arial"
         d="m 276.73722,218.59547 -3.06632,0 0,-19.53925 c -0.7382,0.70414 -1.70919,1.40825 -2.913,2.11235 -1.19246,0.70414 -2.26567,1.23222 -3.21963,1.58427 l 0,-2.96411 c 1.71486,-0.80631 3.21394,-1.78299 4.49726,-2.93004 1.2833,-1.147 2.19184,-2.25996 2.72562,-3.33888 l 1.97607,0 0,25.07566 m 7.87021,-12.31637 c 0,-2.95273 0.30095,-5.32629 0.90286,-7.12067 0.61326,-1.8057 1.51612,-3.1969 2.70858,-4.1736 1.20381,-0.97665 2.71425,-1.46499 4.53134,-1.46502 1.34008,3e-5 2.5155,0.27259 3.52626,0.81769 1.01074,0.53379 1.84546,1.31172 2.50416,2.33381 0.65867,1.01077 1.17541,2.24865 1.55019,3.71365 0.37476,1.45368 0.56214,3.41839 0.56216,5.89414 -2e-5,2.93005 -0.30097,5.29792 -0.90286,7.10364 -0.60192,1.79436 -1.50478,3.18556 -2.70858,4.17359 -1.19247,0.97668 -2.70291,1.46502 -4.53133,1.46502 -2.40764,0 -4.29853,-0.86311 -5.67269,-2.58933 -1.64673,-2.07828 -2.47009,-5.46258 -2.47009,-10.15292 m 3.15149,0 c 0,4.09979 0.47698,6.83108 1.43095,8.19388 0.96532,1.35145 2.15209,2.02718 3.56034,2.02718 1.40822,0 2.58932,-0.6814 3.5433,-2.04421 0.9653,-1.36281 1.44797,-4.08842 1.44798,-8.17685 -10e-6,-4.11112 -0.48268,-6.84241 -1.44798,-8.19388 -0.95398,-1.35143 -2.14644,-2.02715 -3.57737,-2.02718 -1.40825,3e-5 -2.53256,0.59625 -3.37295,1.78869 -1.05618,1.52182 -1.58427,4.33261 -1.58427,8.43237 m 16.26852,0 c 0,-2.95273 0.30095,-5.32629 0.90286,-7.12067 0.61326,-1.8057 1.51612,-3.1969 2.70858,-4.1736 1.20381,-0.97665 2.71425,-1.46499 4.53133,-1.46502 1.34009,3e-5 2.51551,0.27259 3.52627,0.81769 1.01073,0.53379 1.84545,1.31172 2.50416,2.33381 0.65867,1.01077 1.1754,2.24865 1.55019,3.71365 0.37476,1.45368 0.56214,3.41839 0.56216,5.89414 -2e-5,2.93005 -0.30097,5.29792 -0.90286,7.10364 -0.60192,1.79436 -1.50478,3.18556 -2.70858,4.17359 -1.19247,0.97668 -2.70291,1.46502 -4.53134,1.46502 -2.40763,0 -4.29852,-0.86311 -5.67268,-2.58933 -1.64673,-2.07828 -2.47009,-5.46258 -2.47009,-10.15292 m 3.15149,0 c 0,4.09979 0.47698,6.83108 1.43095,8.19388 0.96532,1.35145 2.15209,2.02718 3.56033,2.02718 1.40823,0 2.58933,-0.6814 3.5433,-2.04421 0.96531,-1.36281 1.44797,-4.08842 1.44799,-8.17685 -2e-5,-4.11112 -0.48268,-6.84241 -1.44799,-8.19388 -0.95397,-1.35143 -2.14643,-2.02715 -3.57737,-2.02718 -1.40824,3e-5 -2.53255,0.59625 -3.37294,1.78869 -1.05619,1.52182 -1.58427,4.33261 -1.58427,8.43237"
         id="text4150" />
      <path
         transform="scale(0.9370289,1.067203)"
         style="font-size:34.8878746px;font-style:normal;font-variant:normal;font-weight:normal;font-stretch:normal;fill:#ffffff;fill-opacity:1;stroke:none;font-family:Arial;-inkscape-font-specification:Arial"
         d="m 287.81993,147.49224 c -1.27196,-0.46561 -2.21456,-1.12998 -2.82782,-1.99311 -0.61327,-0.86309 -0.9199,-1.89655 -0.9199,-3.10038 0,-1.81706 0.65301,-3.34454 1.95904,-4.58244 1.30602,-1.23786 3.04359,-1.8568 5.21274,-1.85683 2.18048,3e-5 3.93509,0.636 5.26384,1.90793 1.32872,1.26062 1.99309,2.79946 1.99311,4.61651 -2e-5,1.15841 -0.30665,2.16915 -0.9199,3.03225 -0.60192,0.85177 -1.52181,1.51046 -2.75968,1.97607 1.53314,0.49971 2.6972,1.30604 3.49219,2.41898 0.80631,1.11297 1.20948,2.44171 1.20949,3.98622 -10e-6,2.13507 -0.75524,3.92943 -2.26566,5.38309 -1.51046,1.45366 -3.49789,2.18049 -5.96229,2.18049 -2.46442,0 -4.45184,-0.72683 -5.96228,-2.18049 -1.51045,-1.46502 -2.26567,-3.28777 -2.26567,-5.46827 0,-1.624 0.40884,-2.98113 1.22653,-4.07139 0.82904,-1.10159 2.00446,-1.85113 3.52626,-2.24863 m -0.61326,-5.1957 c -10e-6,1.18111 0.38044,2.14644 1.14135,2.89596 0.76089,0.74956 1.74893,1.12433 2.96411,1.12432 1.18109,1e-5 2.14641,-0.36908 2.89596,-1.10728 0.76089,-0.74953 1.14134,-1.66375 1.14136,-2.74265 -2e-5,-1.1243 -0.39183,-2.06691 -1.17543,-2.82783 -0.77227,-0.77223 -1.73759,-1.15836 -2.89596,-1.15838 -1.16975,2e-5 -2.14075,0.37479 -2.913,1.12431 -0.77227,0.74957 -1.1584,1.64675 -1.15839,2.69155 m -0.98804,11.53276 c 0,0.87447 0.20442,1.72055 0.61327,2.53822 0.42019,0.81769 1.03913,1.45367 1.85682,1.90794 0.81768,0.44291 1.69783,0.66437 2.64044,0.66436 1.46501,1e-5 2.6745,-0.4713 3.62848,-1.41391 0.95395,-0.9426 1.43093,-2.14074 1.43095,-3.5944 -2e-5,-1.47637 -0.49404,-2.69722 -1.48206,-3.66255 -0.97669,-0.96531 -2.20321,-1.44797 -3.67958,-1.44798 -1.44231,1e-5 -2.64044,0.47699 -3.5944,1.43095 -0.94262,0.95397 -1.41392,2.14643 -1.41392,3.57737 m 16.37073,-5.11053 c 0,-2.95274 0.30095,-5.32629 0.90286,-7.12067 0.61326,-1.8057 1.51612,-3.1969 2.70858,-4.1736 1.20381,-0.97665 2.71425,-1.46499 4.53134,-1.46502 1.34008,3e-5 2.5155,0.27259 3.52626,0.81769 1.01074,0.53379 1.84546,1.31172 2.50416,2.3338 0.65867,1.01077 1.17541,2.24866 1.55019,3.71365 0.37476,1.45368 0.56214,3.41839 0.56216,5.89415 -2e-5,2.93004 -0.30097,5.29792 -0.90286,7.10363 -0.60192,1.79437 -1.50478,3.18557 -2.70858,4.1736 -1.19247,0.97668 -2.70291,1.46502 -4.53133,1.46502 -2.40764,0 -4.29853,-0.86311 -5.67269,-2.58934 -1.64673,-2.07827 -2.47009,-5.46258 -2.47009,-10.15291 m 3.15149,0 c 0,4.09979 0.47698,6.83108 1.43095,8.19388 0.96532,1.35145 2.15209,2.02718 3.56034,2.02717 1.40822,1e-5 2.58932,-0.6814 3.5433,-2.04421 0.9653,-1.3628 1.44797,-4.08841 1.44798,-8.17684 -10e-6,-4.11112 -0.48268,-6.84241 -1.44798,-8.19388 -0.95398,-1.35143 -2.14644,-2.02716 -3.57737,-2.02718 -1.40825,2e-5 -2.53256,0.59625 -3.37295,1.78869 -1.05618,1.52182 -1.58427,4.3326 -1.58427,8.43237"
         id="text4154" />
      <path
         transform="scale(0.9370289,1.067203)"
         style="font-size:34.8878746px;font-style:normal;font-variant:normal;font-weight:normal;font-stretch:normal;fill:#ffffff;fill-opacity:1;stroke:none;font-family:Arial;-inkscape-font-specification:Arial"
         d="m 277.2868,94.321891 -3.04928,0.238491 c -0.27258,-1.203794 -0.6587,-2.078261 -1.15839,-2.623405 -0.82905,-0.874446 -1.85116,-1.311679 -3.06631,-1.311702 -0.97669,2.3e-5 -1.83412,0.272584 -2.5723,0.817685 -0.96533,0.704138 -1.72623,1.731921 -2.28271,3.083352 -0.55648,1.351468 -0.84608,3.276432 -0.86879,5.774898 0.73819,-1.124303 1.64105,-1.959022 2.70858,-2.50416 1.06753,-0.545107 2.18617,-0.817668 3.35592,-0.817684 2.0442,1.6e-5 3.78177,0.755238 5.21274,2.265667 1.44228,1.499097 2.16344,3.441097 2.16345,5.826007 -1e-5,1.56723 -0.34072,3.02657 -1.0221,4.37802 -0.67007,1.34009 -1.59564,2.36787 -2.77672,3.08335 -1.18112,0.71547 -2.52121,1.07321 -4.02028,1.07321 -2.55528,0 -4.63923,-0.93693 -6.25188,-2.81079 -1.61266,-1.88522 -2.41899,-4.9856 -2.41899,-9.30116 0,-4.826598 0.8915,-8.335824 2.67451,-10.527693 1.55587,-1.907907 3.65118,-2.861871 6.28595,-2.861896 1.9647,2.5e-5 3.57168,0.550826 4.82093,1.652404 1.26058,1.101625 2.01581,2.623426 2.26567,4.565406 m -12.52079,10.766179 c -10e-6,1.05618 0.22145,2.06693 0.66437,3.03225 0.45426,0.96532 1.08456,1.70351 1.89089,2.21456 0.80632,0.4997 1.6524,0.74955 2.53823,0.74954 1.29466,1e-5 2.40761,-0.5224 3.33888,-1.56722 0.93124,-1.04482 1.39686,-2.46441 1.39688,-4.25878 -2e-5,-1.72621 -0.45997,-3.08334 -1.37985,-4.07139 -0.9199,-0.99938 -2.07829,-1.499071 -3.47516,-1.499084 -1.38553,1.3e-5 -2.56095,0.499704 -3.52626,1.499084 -0.96533,0.98805 -1.44799,2.28839 -1.44798,3.90104 m 16.03002,-4.2247 c 0,-2.952737 0.30095,-5.326292 0.90286,-7.120673 0.61326,-1.805698 1.51612,-3.196896 2.70858,-4.173598 1.20381,-0.976654 2.71425,-1.464993 4.53134,-1.465018 1.34008,2.5e-5 2.5155,0.272586 3.52626,0.817685 1.01074,0.53379 1.84545,1.311725 2.50416,2.333808 0.65867,1.010769 1.1754,2.248652 1.55019,3.71365 0.37476,1.453679 0.56214,3.418391 0.56216,5.894146 -2e-5,2.93004 -0.30097,5.29792 -0.90286,7.10363 -0.60192,1.79437 -1.50478,3.18557 -2.70858,4.1736 -1.19247,0.97668 -2.70291,1.46502 -4.53133,1.46502 -2.40764,0 -4.29853,-0.86311 -5.67269,-2.58934 -1.64673,-2.07827 -2.47009,-5.46258 -2.47009,-10.15291 m 3.15149,0 c 0,4.09978 0.47698,6.83108 1.43095,8.19388 0.96532,1.35145 2.15209,2.02718 3.56034,2.02717 1.40822,1e-5 2.58932,-0.6814 3.5433,-2.04421 0.9653,-1.3628 1.44796,-4.08841 1.44798,-8.17684 -2e-5,-4.111123 -0.48268,-6.842413 -1.44798,-8.193883 -0.95398,-1.35143 -2.14644,-2.027154 -3.57737,-2.027177 -1.40825,2.3e-5 -2.53256,0.59625 -3.37295,1.788685 -1.05618,1.521821 -1.58427,4.332609 -1.58427,8.432375"
         id="text4158" />
      <path
         transform="scale(0.9370289,1.067203)"
         style="font-size:34.8878746px;font-style:normal;font-variant:normal;font-weight:normal;font-stretch:normal;fill:#ffffff;fill-opacity:1;stroke:none;font-family:Arial;-inkscape-font-specification:Arial"
         d="m 237.66461,80.383736 0,-5.979319 -10.83432,0 0,-2.81079 11.39648,-16.183341 2.50415,0 0,16.183341 3.37295,0 0,2.81079 -3.37295,0 0,5.979319 -3.06631,0 m 0,-8.790109 0,-11.260198 -7.81911,11.260198 7.81911,0 m 9.59076,-3.526265 c -1e-5,-2.952735 0.30095,-5.326289 0.90286,-7.12067 0.61326,-1.805699 1.51612,-3.196897 2.70858,-4.173598 1.2038,-0.976654 2.71425,-1.464993 4.53133,-1.465018 1.34008,2.5e-5 2.5155,0.272586 3.52627,0.817684 1.01073,0.53379 1.84545,1.311726 2.50415,2.333808 0.65868,1.01077 1.17541,2.248653 1.5502,3.713651 0.37475,1.453678 0.56214,3.418391 0.56216,5.894143 -2e-5,2.930046 -0.30097,5.297922 -0.90286,7.103635 -0.60193,1.794366 -1.50479,3.185564 -2.70858,4.173598 -1.19247,0.976679 -2.70292,1.465018 -4.53134,1.465018 -2.40763,0 -4.29853,-0.863111 -5.67269,-2.589334 -1.64672,-2.078278 -2.47009,-5.46258 -2.47008,-10.152917 m 3.15149,0 c -1e-5,4.099788 0.47698,6.831079 1.43095,8.193881 0.96531,1.351453 2.15209,2.027178 3.56033,2.027176 1.40822,2e-6 2.58932,-0.681401 3.5433,-2.044211 0.96531,-1.362803 1.44797,-4.088415 1.44798,-8.176846 -10e-6,-4.11112 -0.48267,-6.842411 -1.44798,-8.193881 -0.95398,-1.351429 -2.14643,-2.027154 -3.57737,-2.027176 -1.40824,2.2e-5 -2.53256,0.59625 -3.37295,1.788685 -1.05618,1.521821 -1.58427,4.332609 -1.58426,8.432372"
         id="text4162" />
      <path
         transform="scale(0.9370289,1.067203)"
         style="font-size:34.8878746px;font-style:normal;font-variant:normal;font-weight:normal;font-stretch:normal;fill:#ffffff;fill-opacity:1;stroke:none;font-family:Arial;-inkscape-font-specification:Arial"
         d="m 137.23022,79.8195 0,2.947071 -16.50701,0 c -0.0227,-0.738187 0.0965,-1.447982 0.35774,-2.129387 0.4202,-1.124313 1.09024,-2.231593 2.01014,-3.321843 0.93125,-1.09024 2.27134,-2.350836 4.02028,-3.781791 2.71425,-2.225908 4.54836,-3.986199 5.50234,-5.28088 0.95395,-1.306008 1.43093,-2.538212 1.43095,-3.696616 -2e-5,-1.21515 -0.43725,-2.237255 -1.3117,-3.066317 -0.86313,-0.840376 -1.99312,-1.260574 -3.38999,-1.260597 -1.47638,2.3e-5 -2.65748,0.442935 -3.5433,1.328738 -0.88583,0.885845 -1.33442,2.112371 -1.34577,3.67958 l -3.15149,-0.323667 c 0.21577,-2.350822 1.02778,-4.139506 2.43602,-5.366054 1.40822,-1.23786 3.29912,-1.856801 5.67268,-1.856826 2.39626,2.5e-5 4.29283,0.664393 5.68972,1.993106 1.39687,1.328759 2.0953,2.975484 2.09532,4.940178 -2e-5,0.999409 -0.20444,1.981765 -0.61326,2.947071 -0.40886,0.965337 -1.09026,1.981763 -2.04421,3.049282 -0.94263,1.067544 -2.51553,2.532561 -4.71873,4.395055 -1.83979,1.544521 -3.02089,2.595018 -3.5433,3.151492 -0.52241,0.545127 -0.95397,1.095928 -1.29466,1.652405 l 12.24823,0 m 13.13406,2.947071 0,-5.979318 -10.83432,0 0,-2.810791 11.39648,-16.18334 2.50416,0 0,16.18334 3.37294,0 0,2.810791 -3.37294,0 0,5.979318 -3.06632,0 m 0,-8.790109 0,-11.260198 -7.81911,11.260198 7.81911,0 m 9.59076,-3.526265 c 0,-2.952734 0.30095,-5.326288 0.90286,-7.120669 0.61326,-1.805699 1.51612,-3.196897 2.70858,-4.173599 1.2038,-0.976654 2.71425,-1.464993 4.53133,-1.465018 1.34009,2.5e-5 2.51551,0.272586 3.52627,0.817685 1.01073,0.53379 1.84545,1.311725 2.50416,2.333808 0.65867,1.01077 1.1754,2.248652 1.55019,3.71365 0.37475,1.453679 0.56214,3.418391 0.56216,5.894143 -2e-5,2.930046 -0.30097,5.297922 -0.90286,7.103635 -0.60193,1.794367 -1.50478,3.185565 -2.70858,4.173598 -1.19247,0.976679 -2.70292,1.465018 -4.53134,1.465018 -2.40763,0 -4.29853,-0.863111 -5.67268,-2.589334 -1.64673,-2.078277 -2.47009,-5.46258 -2.47009,-10.152917 m 3.15149,0 c -1e-5,4.099788 0.47698,6.831079 1.43095,8.193881 0.96531,1.351454 2.15209,2.027178 3.56033,2.027176 1.40823,2e-6 2.58932,-0.681401 3.5433,-2.044211 0.96531,-1.362802 1.44797,-4.088415 1.44798,-8.176846 -1e-5,-4.111119 -0.48267,-6.84241 -1.44798,-8.19388 -0.95398,-1.351429 -2.14643,-2.027154 -3.57737,-2.027177 -1.40824,2.3e-5 -2.53256,0.596251 -3.37295,1.788685 -1.05618,1.521821 -1.58427,4.332609 -1.58426,8.432372"
         id="text4166" />
    </g>
  </g>
</svg>