<?xml version="1.0" encoding="UTF-8" standalone="no"?>
<svg
   xmlns:oryx="http://www.b3mn.org/oryx"
   xmlns:dc="http://purl.org/dc/elements/1.1/"
   xmlns:cc="http://creativecommons.org/ns#"
   xmlns:rdf="http://www.w3.org/1999/02/22-rdf-syntax-ns#"
   xmlns:svg="http://www.w3.org/2000/svg"
   xmlns="http://www.w3.org/2000/svg"
   xmlns:sodipodi="http://sodipodi.sourceforge.net/DTD/sodipodi-0.dtd"
   xmlns:inkscape="http://www.inkscape.org/namespaces/inkscape"
   width="162"
   height="82"
   version="1.0"
   id="svg2"
   inkscape:version="0.47 r22583"
   sodipodi:docname="ppi.svg">
  <metadata
     id="metadata14">
    <rdf:RDF>
      <cc:Work
         rdf:about="">
        <dc:format>image/svg+xml</dc:format>
        <dc:type
           rdf:resource="http://purl.org/dc/dcmitype/StillImage" />
        <dc:title></dc:title>
      </cc:Work>
    </rdf:RDF>
  </metadata>
  <sodipodi:namedview
     pagecolor="#ffffff"
     bordercolor="#666666"
     borderopacity="1"
     objecttolerance="10"
     gridtolerance="10"
     guidetolerance="10"
     inkscape:pageopacity="0"
     inkscape:pageshadow="2"
     inkscape:window-width="699"
     inkscape:window-height="504"
     id="namedview12"
     showgrid="false"
     inkscape:zoom="2.8780488"
     inkscape:cx="56.36774"
     inkscape:cy="41"
     inkscape:window-x="0"
     inkscape:window-y="24"
     inkscape:window-maximized="0"
     inkscape:current-layer="svg2" />
  <defs
     id="defs4">
    <inkscape:perspective
       sodipodi:type="inkscape:persp3d"
       inkscape:vp_x="0 : 41 : 1"
       inkscape:vp_y="0 : 1000 : 0"
       inkscape:vp_z="162 : 41 : 1"
       inkscape:persp3d-origin="81 : 27.333333 : 1"
       id="perspective16" />
    <inkscape:perspective
       id="perspective2863"
       inkscape:persp3d-origin="0.5 : 0.33333333 : 1"
       inkscape:vp_z="1 : 0.5 : 1"
       inkscape:vp_y="0 : 1000 : 0"
       inkscape:vp_x="0 : 0.5 : 1"
       sodipodi:type="inkscape:persp3d" />
    <inkscape:perspective
       id="perspective2876"
       inkscape:persp3d-origin="0.5 : 0.33333333 : 1"
       inkscape:vp_z="1 : 0.5 : 1"
       inkscape:vp_y="0 : 1000 : 0"
       inkscape:vp_x="0 : 0.5 : 1"
       sodipodi:type="inkscape:persp3d" />
    <inkscape:perspective
       id="perspective2889"
       inkscape:persp3d-origin="0.5 : 0.33333333 : 1"
       inkscape:vp_z="1 : 0.5 : 1"
       inkscape:vp_y="0 : 1000 : 0"
       inkscape:vp_x="0 : 0.5 : 1"
       sodipodi:type="inkscape:persp3d" />
    <inkscape:perspective
       id="perspective2902"
       inkscape:persp3d-origin="0.5 : 0.33333333 : 1"
       inkscape:vp_z="1 : 0.5 : 1"
       inkscape:vp_y="0 : 1000 : 0"
       inkscape:vp_x="0 : 0.5 : 1"
       sodipodi:type="inkscape:persp3d" />
    <inkscape:perspective
       id="perspective2915"
       inkscape:persp3d-origin="0.5 : 0.33333333 : 1"
       inkscape:vp_z="1 : 0.5 : 1"
       inkscape:vp_y="0 : 1000 : 0"
       inkscape:vp_x="0 : 0.5 : 1"
       sodipodi:type="inkscape:persp3d" />
  </defs>
  <oryx:magnets>
    <oryx:magnet
       oryx:cx="0"
       oryx:cy="40"
       oryx:anchors="left" />
    <oryx:magnet
       oryx:cx="80"
       oryx:cy="80"
       oryx:anchors="bottom" />
    <oryx:magnet
       oryx:cx="160"
       oryx:cy="40"
       oryx:anchors="right" />
    <oryx:magnet
       oryx:cx="80"
       oryx:cy="0"
       oryx:anchors="top" />
    <oryx:magnet
       oryx:cx="80"
       oryx:cy="40"
       oryx:default="yes" />
  </oryx:magnets>
  <g
     pointer-events="fill"
     oryx:minimumSize="15 10"
     oryx:maximumSize="306 246"
     id="g6">
    <g
       id="ppi"
       oryx:anchors="bottom">
      <rect
         oryx:resize="vertical horizontal"
         oryx:anchors="bottom"
         x="0"
         y="0"
         width="160"
         height="80"
         id="rect9"
         style="fill:#ffffff;stroke:#000000;stroke-width:1" />
      
      <text
         font-size="12"
         id="idPpi"
         x="60"
         y="0"
         oryx:align="top left"
         oryx:fittoelem="ppi" />
    </g>
  </g>
  <path
     transform="matrix(0.11799053,0,0,0.11560602,-3.6916861,-3.2878849)"
     d="m 325.71428,177.21428 a 145.71428,145.71428 0 1 1 -291.428559,0 145.71428,145.71428 0 1 1 291.428559,0 z"
     sodipodi:ry="145.71428"
     sodipodi:rx="145.71428"
     sodipodi:cy="177.21428"
     sodipodi:cx="180"
     id="path2454"
     style="fill:#000000;fill-opacity:1;stroke:#f6f3f3"
     sodipodi:type="arc" 
     oryx:fittoelem="ppi"/>
  <path
     id="path4105"
     d="m 30.927605,8.102676 -1.650389,1.14325 c 1.581123,2.232898 2.509086,4.943128 2.509086,7.867812 0,7.617821 -6.289616,13.802393 -14.040509,13.802393 -3.536814,0 -6.768793,-1.288035 -9.2385408,-3.411693 l -1.3123953,1.508327 c 2.8224871,2.420098 6.5139671,3.884558 10.5509361,3.884558 8.86472,0 16.059352,-7.071096 16.059352,-15.783585 0,-3.349851 -1.064358,-6.455113 -2.87754,-9.011062 z"
     style="fill:#ffffff;fill-opacity:1;fill-rule:evenodd;stroke:#e6e6e6;display:inline" oryx:fittoelem="ppi"/>
  <path
     id="path4110"
     d="M 3.1436853,10.995327 C 2.533959,12.507483 2.1230466,14.107705 1.944548,15.766946 1.3977337,20.849879 3.1533032,25.44103 6.3798778,28.604261 L 8.0321022,27.058428 C 5.1817474,24.291281 3.6265773,20.258364 4.1072669,15.790096 4.2637968,14.335067 4.6258283,12.93171 5.1615418,11.60612 L 3.1436853,10.995327 z"
     style="fill:#ffffff;fill-opacity:1;fill-rule:evenodd;stroke:#e6e6e6;display:inline" oryx:fittoelem="ppi" />
  <path
     sodipodi:nodetypes="cccscccssccsccc"
     id="path4067"
     d="m 26.95512,25.210912 c 0.0786,-0.832393 -4.914019,-5.322566 -5.798548,-6.014154 L 17.97292,16.428864 c -0.05795,-0.749624 -0.645833,-1.339665 -1.364792,-1.339665 -0.0531,0 -0.104871,0.0088 -0.156447,0.01063 l -2.107054,-1.835798 c -0.07656,-0.72925 -0.656182,-1.297102 -1.36144,-1.297102 -0.757302,0 -1.371427,0.653828 -1.371428,1.460122 0,0.806269 0.614126,1.463685 1.371428,1.463677 0.09837,0 0.193762,-0.01463 0.286267,-0.03527 l 1.967235,1.715314 c 0.01086,0.796342 0.62089,1.438819 1.371439,1.438819 0.0866,0 0.170826,-0.0088 0.252979,-0.0249 l 3.007235,2.615472 c 0.695388,0.652321 6.220149,4.629922 7.086778,4.610799 z"
     style="fill:#ffffff;fill-opacity:1;fill-rule:evenodd;stroke:#e6e6e6;stroke-width:0.21981861;stroke-linecap:butt;stroke-linejoin:miter;stroke-miterlimit:4;stroke-opacity:1;stroke-dasharray:none;stroke-dashoffset:0;display:inline" oryx:fittoelem="ppi" />
</svg>
