<?xml version="1.0" encoding="UTF-8" standalone="no"?>
<svg
   xmlns:oryx="http://www.b3mn.org/oryx"
   xmlns:dc="http://purl.org/dc/elements/1.1/"
   xmlns:cc="http://creativecommons.org/ns#"
   xmlns:rdf="http://www.w3.org/1999/02/22-rdf-syntax-ns#"
   xmlns:svg="http://www.w3.org/2000/svg"
   xmlns="http://www.w3.org/2000/svg"
   xmlns:inkscape="http://www.inkscape.org/namespaces/inkscape"
   width="162"
   height="82"
   version="1.0"
   id="svg2913"
   inkscape:version="0.47 r22583">
  <metadata
     id="metadata2925">
    <rdf:RDF>
      <cc:Work
         rdf:about="">
        <dc:format>image/svg+xml</dc:format>
        <dc:type
           rdf:resource="http://purl.org/dc/dcmitype/StillImage" />
        <dc:title />
      </cc:Work>
    </rdf:RDF>
  </metadata>
  <defs></defs>
  <oryx:magnets>
    <oryx:magnet oryx:cx="0" oryx:cy="40" oryx:anchors="left" />
    <oryx:magnet oryx:cx="80" oryx:cy="80" oryx:anchors="bottom" />
    <oryx:magnet oryx:cx="160" oryx:cy="40" oryx:anchors="right" />
    <oryx:magnet oryx:cx="80" oryx:cy="0" oryx:anchors="top" />
    <oryx:magnet oryx:cx="80" oryx:cy="40" oryx:default="yes" />
  </oryx:magnets>
  <!--<g id="g2821">-->
    <g
       transform="translate(0.34745763,0.34745763)"
       id="g2917"
       oryx:maximumSize="800 800"
       oryx:minimumSize="15 10"
       pointer-events="fill">
      <g
         oryx:anchors="top"
         id="ppi">
        <rect
           style="fill:#ffffff;stroke:#000000;stroke-width:1"
           id="rect2920"
           height="80"
           width="160"
           y="0"
           x="0"
           oryx:anchors="top"
           oryx:resize="vertical horizontal" />
        
        <text
           style="font-size:12px"
           oryx:fittoelem="ppi"
           oryx:align="top center"
           y="0"
           x="60"
           id="idPpi"
           font-size="12" />
           
        <ellipse oryx:fittoelem="ppi" oryx:anchors="top left" cx="15.6785" cy="15.77078" rx="13.78889" ry="13.65" stroke="black" stroke-width="1" fill ="none"/>
        
        <line oryx:fittoelem="ppi" oryx:anchors="top left" transform="rotate(90 3.7007207870483385,15.778500556945803) " fill="none" stroke="#000000" stroke-dasharray="null" stroke-linejoin="null" stroke-linecap="null" x1="3.70072" y1="13.98961" x2="3.70072" y2="17.56739" />  
        <line oryx:fittoelem="ppi" oryx:anchors="top left" transform="rotate(90 27.50079154968262,15.778500556945803) " fill="none" stroke="#000000" stroke-dasharray="null" stroke-linejoin="null" stroke-linecap="null" x1="27.50072" y1="13.98961" x2="27.50072" y2="17.56739"/>
     	<line oryx:fittoelem="ppi" oryx:anchors="top left" fill="none" stroke="#000000" stroke-dasharray="null" stroke-linejoin="null" stroke-linecap="null" x1="15.70072" y1="2.28961" x2="15.70072" y2="5.86739"/>     	  
     	<line oryx:fittoelem="ppi" oryx:anchors="top left" transform="rotate(-45 7.100660800933838,7.778500556945802) " fill="none" stroke="#000000" stroke-dasharray="null" stroke-linejoin="null" stroke-linecap="null" x1="7.10072" y1="5.98961" x2="7.10072" y2="9.56739"/>
     	<line oryx:fittoelem="ppi" oryx:anchors="top left" y2="7.7" x2="12" y1="18.9" x1="14.4" stroke-linecap="round" stroke-linejoin="null" stroke-dasharray="null" stroke-width="null" stroke="#020202" fill="none"/>
     	<line oryx:fittoelem="ppi" oryx:anchors="top left" y2="7.2" x2="11.9" y1="19.1" x1="17.3" stroke-linecap="round" stroke-linejoin="null" stroke-dasharray="null" stroke-width="null" stroke="#050505" fill="none"/> 
     	<line oryx:fittoelem="ppi" oryx:anchors="top left" transform="rotate(45 24.200735092163082,7.778497219085695) "  fill="none" stroke="black" stroke-dasharray="null" stroke-linejoin="null" stroke-linecap="null" x1="24.20072" y1="5.98961" x2="24.20072" y2="9.56739"/>
     	
     	<path oryx:fittoelem="ppi" oryx:anchors="top left" fill="none" stroke="#050505" stroke-width="null" stroke-dasharray="null" stroke-linejoin="null" stroke-linecap="null" id="svg_22" d="m4.57633,23.81787l0.49586,-0.48581l0.66923,-0.54491l0.79471,-0.63201l0.69015,-0.47952l0.81563,-0.50124l0.83651,-0.43592l0.75289,-0.3487l0.83658,-0.32692l0.77378,-0.23976l0.79473,-0.17438l0.77378,-0.15254l0.77377,-0.08716l0.69015,-0.06538l0.81562,-0.04362l0.83659,0l0.69014,0.02178l0.85741,0.08722l0.75289,0.08715l0.69014,0.13078l0.75289,0.19615l0.69014,0.17438l0.7111,0.2397l0.66919,0.26154l0.66925,0.32692l0.66926,0.37053l0.58555,0.3487l0.58556,0.39231l0.50192,0.37053l0.52288,0.41408l0.46007,0.41414l0.35556,0.32693l0.37643,0.37046"/>

		
      </g>
      
      <g>
      	<rect oryx:anchors="bottom" fill="#a0a0a0" stroke="#000000" x="0" y="56" width="160" height="24" oryx:resize="horizontal"/>
      </g>
      
      <g>
      	<circle oryx:anchors="bottom" r="8.09086" cy="67.875" cx="14.5" stroke-linecap="null" stroke-linejoin="null" stroke-dasharray="null" stroke-width="3" stroke="#000000" fill="#ffffff"/>
  		<circle oryx:anchors="bottom" r="1.52069" cy="68" cx="14.5" stroke-linecap="null" stroke-linejoin="null" stroke-dasharray="null" stroke-width="3" stroke="#000000" fill="#ffffff"/>
  		<text oryx:anchors="bottom" font-weight="bold" xml:space="preserve" text-anchor="middle" font-family="Sans-serif" font-size="14" y="74" x="25" stroke-linecap="null" stroke-width="0" stroke="#000000" fill="#000000">target</text>
      </g>
      
      <g>
      	<rect oryx:anchors="bottom" id="svg_3" height="12.571429" width="21.857142" y="63.42857" x="82.785715" stroke-linecap="null" stroke-linejoin="null" stroke-dasharray="null" stroke-width="null" stroke="#ffffff" fill="#ffffff"/>
      	<path oryx:anchors="bottom" stroke="black" fill="#FFFFFF" d="m82,61v15m4.5,-15v15m4.5,-15v15m4.5,-15v15m4.5,-15v15m4.5,-15v15m-23,-15h23.5m-23.5,15h23.5m-23.5,-4.5h23.5m-23.5,-4.5h23.5m-23.5,-4.5h23.5m-23.5,-4h23.5m-23.5,3h23.5m-23.5,-2h23.5m-23.5,1h23.5"/>
      	<text oryx:anchors="bottom" font-weight="bold" xml:space="preserve" text-anchor="middle" font-family="Sans-serif" font-size="14" y="74" x="107" stroke-linecap="null" stroke-width="0" stroke="#000000" fill="#000000">scope</text>
      </g>
      
      
  </g>
      
  <!--</g>-->
</svg>

