<?xml version="1.0" encoding="UTF-8" standalone="no"?>
<svg
   xmlns="http://www.w3.org/2000/svg"
   xmlns:svg="http://www.w3.org/2000/svg"
   xmlns:oryx="http://www.b3mn.org/oryx"
   xmlns:xlink="http://www.w3.org/1999/xlink"
   width="102"
   height="82"
   version="1.0">
  <defs></defs>
  <oryx:magnets>
  	<oryx:magnet oryx:cx="0" oryx:cy="42" oryx:anchors="left" />
  	<oryx:magnet oryx:cx="24" oryx:cy="58" oryx:anchors="bottom" />
  	<oryx:magnet oryx:cx="48" oryx:cy="42" oryx:anchors="right" />
  	<oryx:magnet oryx:cx="20" oryx:cy="26" oryx:anchors="top" />
	<oryx:magnet oryx:cx="24" oryx:cy="42" oryx:default="yes" />
  </oryx:magnets>
  <g pointer-events="fill" oryx:minimumSize="15 10" oryx:maximumSize="240 160" >
  		<g id="dataAggregatedMeasure">
			
		 	<rect oryx:resize="vertical horizontal"  x="0" y="26" width="48" height="32" stroke="black" stroke-width="1" fill="white" />
			<path oryx:resize="vertical horizontal" fill="none" stroke="black" stroke-width="1" d="M3 53 v5 m 3 -5 v5 m 3 -5 v5 m 3 -10 v10 m 3 -5 v5 m 3 -5 v5 m 3 -5 v5 m 3 -10 v10 m 3 -5 v5 m 3 -5 v5 m 3 -5 v5 m 3 -10 v10 m 3 -5 v5 m 3 -5 v5 m 3 -5 v5"/>
			<path oryx:resize="vertical horizontal" fill="none" stroke="black" stroke-width="1" d="M6 26 v-4 h48 v32 h-6 M 51 49 v5"/>
			<path oryx:resize="vertical horizontal" fill="none" stroke="black" stroke-width="1" d="M 12 22 v-4 h48 v32 h-6 M 57 45 v5"/>
				
			<!-- Data icon -->
			<!-- <ellipse oryx:anchors="top left" cx="6" cy="4" rx="2" ry="2" stroke="black" stroke-width="1" fill ="none"/>
			<path oryx:anchors="top left" fill="none" stroke="black" d="M 6 6 v2 M 6 7 l -2 1 M6 7 l 2 1 M 6 16 l-3 3 M6 16 l3 3 M1.75 16 v-1 M2 16 v-1 M2.25 16 v-1 M 9.75 16 v-1 M10 16 v-1 M10.25 16 v-1" stroke-width="1"/>
			<path oryx:anchors="top left" fill="none" stroke="black" d="M 0 8 h12 v8 h -12 v-8 l 6 4 l6 -4" stroke-width="1"/> -->
			
			<rect oryx:anchors="top left" x="0.1" y="0.55977" width="12.16667" height="15.8069" stroke="black" stroke-width="1" fill="white" />
			<rect oryx:anchors="top left" x="7.46667" y="-0.16667" width="5.6" height="5.4" stroke="white" stroke-width="0" fill="white" />
			<path oryx:anchors="top left" fill="white" stroke="black" d="m7.916667,4.833333l0,-3.791667l3.708334,3.727942l-3.708334,0.063725z" stroke-width="1"/>
			
			
		</g>
    	
    	<text font-size="12" id="minimum" x="10" y="38" oryx:align="middle left" oryx:fittoelem="timeAggregatedMeasure"> MIN </text>
    	<text font-size="12" id="maximum" x="10" y="38" oryx:align="middle left" oryx:fittoelem="timeAggregatedMeasure"> MAX </text>
    	<text font-size="12" id="average" x="10" y="38" oryx:align="middle left" oryx:fittoelem="timeAggregatedMeasure"> AVG </text>
    	<text font-size="12" id="sum" x="10" y="38" oryx:align="middle left" oryx:fittoelem="timeAggregatedMeasure"> SUM </text>
    	
    	<text font-size="11" id="text" x="30" y="60" oryx:align="top center" stroke="black"></text>
   
       	<!-- <text font-size="10" id="unitOfMeasure" x="35" y="38" oryx:align="middle center" stroke="black" oryx:fittoelem="aggregateMeasure"></text> -->
    	
  </g>
</svg>