<?xml version="1.0" encoding="UTF-8" standalone="no"?>
<svg
   xmlns="http://www.w3.org/2000/svg"
   xmlns:svg="http://www.w3.org/2000/svg"
   xmlns:oryx="http://www.b3mn.org/oryx"
   xmlns:xlink="http://www.w3.org/1999/xlink"
   width="102"
   height="82"
   version="1.0">
  <defs></defs>
  <oryx:magnets>
  	<oryx:magnet oryx:cx="0" oryx:cy="38" oryx:anchors="left" />
  	<oryx:magnet oryx:cx="30" oryx:cy="58" oryx:anchors="bottom" />
  	<oryx:magnet oryx:cx="60" oryx:cy="38" oryx:anchors="right" />
  	<oryx:magnet oryx:cx="30" oryx:cy="18" oryx:anchors="top" />
	<oryx:magnet oryx:cx="30" oryx:cy="38" oryx:default="yes" />
  </oryx:magnets>
  <g pointer-events="fill" oryx:minimumSize="15 10" oryx:maximumSize="240 160" >
  		<g id="dataMeasure">
			
		 	<rect oryx:resize="vertical horizontal" oryx:anchors="top bottom left right" x="0" y="18" width="60" height="40" stroke="black" stroke-width="1" fill="white" />
			<path oryx:resize="vertical horizontal" oryx:anchors="bottom" fill="none" stroke="black" d="M3 53 v5 m 3 -5 v5 m 3 -5 v5 m 3 -10 v10 m 3 -5 v5 m 3 -5 v5 m 3 -5 v5 m 3 -10 v10 m 3 -5 v5 m 3 -5 v5 m 3 -5 v5 m 3 -10 v10 m 3 -5 v5 m 3 -5 v5 m 3 -5 v5 m 3 -10 v10 m 3 -5 v5 m 3 -5 v5 m 3 -5 v5" stroke-width="1"/>
			<!-- <ellipse oryx:anchors="top left" cx="6" cy="2" rx="2" ry="2" stroke="black" stroke-width="1" fill ="none"/>
			<path oryx:anchors="top left" fill="none" stroke="black" d="M 6 4 v2 M 6 5 l -2 1 M6 5 l 2 1 M 6 14 l-3 3 M6 14 l3 3 M1.75 14 v-1 M2 14 v-1 M2.25 14 v-1 M 9.75 14 v-1 M10 14 v-1 M10.25 14 v-1" stroke-width="1"/>
			<path oryx:anchors="top left" fill="none" stroke="black" d="M 0 6 h12 v8 h -12 v-8 l 6 4 l6 -4" stroke-width="1"/> -->
			
			<rect oryx:anchors="top left" x="0.1" y="0.55977" width="12.16667" height="15.8069" stroke="black" stroke-width="1" fill="white" />
			<rect oryx:anchors="top left" x="7.46667" y="-0.16667" width="5.6" height="5.4" stroke="white" stroke-width="0" fill="white" />
			<path oryx:anchors="top left" fill="white" stroke="black" d="m7.916667,4.833333l0,-3.791667l3.708334,3.727942l-3.708334,0.063725z" stroke-width="1"/>
			
			
			
			<!-- <rect fill="none" stroke="black" x="0.1" y="0.55977" width="12.16667" height="16.2069" id="svg_1"/>
  			<rect fill="white" stroke="black" stroke-dasharray="null" stroke-linejoin="null" stroke-linecap="null" x="7.46667" y="-0.16667" width="5.6" height="5.4" id="svg_2" stroke-width="0"/>
  			<path fill="white" stroke="black" stroke-width="null" stroke-dasharray="null" stroke-linejoin="null" stroke-linecap="null" d="m7.916667,4.833333l0,-3.791667l3.708334,3.727942l-3.708334,0.063725z" id="svg_6"/> -->
			
			
				
				
				
						
		</g>
    
    	<text font-size="11" id="text" oryx:align="top center" stroke="black"></text>
    	<!-- <text font-size="10" id="unitOfMeasure" x="35" y="33" oryx:align="middle center" stroke="black" oryx:fittoelem="baseMeasure"></text> -->
  </g>
</svg>