<?xml version="1.0" encoding="UTF-8" standalone="no"?>
<svg
   xmlns="http://www.w3.org/2000/svg"
   xmlns:svg="http://www.w3.org/2000/svg"
   xmlns:oryx="http://www.b3mn.org/oryx"
   xmlns:xlink="http://www.w3.org/1999/xlink"
   width="102"
   height="82"
   version="1.0">
  <defs></defs>
  <oryx:magnets>
    <oryx:magnet oryx:cx="0" oryx:cy="38" oryx:anchors="left" />
  	<oryx:magnet oryx:cx="30" oryx:cy="58" oryx:anchors="bottom" />
  	<oryx:magnet oryx:cx="60" oryx:cy="38" oryx:anchors="right" />
  	<oryx:magnet oryx:cx="30" oryx:cy="18" oryx:anchors="top" />
	<oryx:magnet oryx:cx="30" oryx:cy="38" oryx:default="yes" />
  </oryx:magnets>
  <g pointer-events="fill" oryx:minimumSize="15 10" oryx:maximumSize="240 160" >
  		<g id="derivedInstanceMeasure">
			
		 	<rect oryx:resize="vertical horizontal" oryx:anchors="top bottom left right" x="0" y="18" width="60" height="40" stroke="black" stroke-width="1" fill="white" />
			<path oryx:resize="vertical horizontal" oryx:anchors="bottom" fill="none" stroke="black" stroke-width="1" d="M3 53 v5 m 3 -5 v5 m 3 -5 v5 m 3 -10 v10 m 3 -5 v5 m 3 -5 v5 m 3 -5 v5 m 3 -10 v10 m 3 -5 v5 m 3 -5 v5 m 3 -5 v5 m 3 -10 v10 m 3 -5 v5 m 3 -5 v5 m 3 -5 v5 m 3 -10 v10 m 3 -5 v5 m 3 -5 v5 m 3 -5 v5"/>
			<!-- <path oryx:anchors="top" fill="none" stroke="black" stroke-width="1" d="M24 18 v12 h12 v-12 M 30 20 v8 M 26 24 h8"/> -->
			
		</g>
		
		<text font-size="12" id="function" x="10" y="45" oryx:align="bottom left" stroke="black" oryx:fittoelem="derivedInstanceMeasure"></text>
    
    	<text font-size="11" id="text" x="30" y="60" oryx:align="top center" stroke="black"></text>
    	
    	<!-- <text font-size="12" id="text" x="10" y="45" oryx:align="bottom left" stroke="black" oryx:fittoelem="derivedInstanceMeasure"></text>
    	<text font-size="10" id="unitOfMeasure" x="35" y="45" oryx:align="middle center" stroke="black" oryx:fittoelem="derivedInstanceMeasure"></text> -->
    	
    	<text font-weight="bold" font-style="italic" xml:space="preserve" text-anchor="middle" font-family="serif" font-size="13" id="svg_1" y="13.7" x="4.4" stroke-width="0" stroke="#000000" fill="#000000">fx</text>
    	<!-- <text id="svg_2" font-weight="bold" font-style="italic" xml:space="preserve" text-anchor="middle" font-family="serif" font-size="9" y="16.303125" x="7" stroke-width="0" stroke="#000000" fill="#000000">x</text>-->
  		
    	
    	
  </g>
</svg>
