<?xml version="1.0" encoding="UTF-8" standalone="no"?>
<svg
   xmlns="http://www.w3.org/2000/svg"
   xmlns:svg="http://www.w3.org/2000/svg"
   xmlns:oryx="http://www.b3mn.org/oryx"
   xmlns:xlink="http://www.w3.org/1999/xlink"
   width="102"
   height="82"
   version="1.0">
  <defs></defs>
  <oryx:magnets>
  	<oryx:magnet oryx:cx="0" oryx:cy="38" oryx:anchors="left" />
  	<oryx:magnet oryx:cx="30" oryx:cy="58" oryx:anchors="bottom" />
  	<oryx:magnet oryx:cx="60" oryx:cy="38" oryx:anchors="right" />
  	<oryx:magnet oryx:cx="30" oryx:cy="18" oryx:anchors="top" />
	<oryx:magnet oryx:cx="30" oryx:cy="38" oryx:default="yes" />
  </oryx:magnets>
  <g pointer-events="fill" oryx:minimumSize="15 10" oryx:maximumSize="240 160" >
  		<g id="timeMeasure">
			
		 	<rect oryx:resize="vertical horizontal" oryx:anchors="top bottom left right" x="0" y="18" width="60" height="40" stroke="black" stroke-width="1" fill="white" />
			<path oryx:resize="vertical horizontal" oryx:anchors="bottom" fill="none" stroke="black" d="M3 53 v5 m 3 -5 v5 m 3 -5 v5 m 3 -10 v10 m 3 -5 v5 m 3 -5 v5 m 3 -5 v5 m 3 -10 v10 m 3 -5 v5 m 3 -5 v5 m 3 -5 v5 m 3 -10 v10 m 3 -5 v5 m 3 -5 v5 m 3 -5 v5 m 3 -10 v10 m 3 -5 v5 m 3 -5 v5 m 3 -5 v5" stroke-width="1"/>
			<path oryx:anchors="top left" fill="#666666" stroke="black" d="M 2 16 h8 v-4 h-8 v4" stroke-width="1"/>
			<path oryx:anchors="top left" fill="none" stroke="black" d="M 2 12 l4 -4 l4 4" stroke-width="1"/>
			<path oryx:anchors="top left" fill="#666666" stroke="black" d="M 2 4 l4 4 l4 -4 h-8" stroke-width="1"/>
			<path oryx:anchors="top left" fill="none" stroke="black" d="M 2 4 v-4 h8 v4" stroke-width="1"/>			
			
		</g>
		<g id="cyclic">
			<path oryx:anchors="top left" stroke="black"
	       	style="opacity:1;fill:none;fill-opacity:1;;stroke-width:1.5;stroke-linecap:round;stroke-linejoin:round;stroke-miterlimit:2.0999999;stroke-dasharray:none;stroke-opacity:1"
	        d="M 16,4 L 14,5 L 12,4 M 13,5 A 3.875,3.875 0 1 1 20.75,5" />
	        <path oryx:anchors="top left" stroke="black"
	       	style="opacity:1;fill:none;fill-opacity:1;;stroke-width:1.5;stroke-linecap:round;stroke-linejoin:round;stroke-miterlimit:2.0999999;stroke-dasharray:none;stroke-opacity:1"
	        d="M 20.75,7.5 A 3.875,3.875 0 1 1 13,8 M 18.75,8.5 L 20.75,7.5 L 22.75,8.5" />
	        	        
			<!-- <text oryx:anchors="top left" font-size="11" id="text" x="30" y="60" oryx:align="top center" stroke="black">XSX</text> -->
			
			<rect oryx:anchors="top left" x="25" y="5" width="25" height="5" stroke="white" stroke-width="4" fill="white" /> 
			      	   
				        	        
	        <!--<path oryx:anchors="top left" stroke="black"
	       	style="opacity:1;fill:none;fill-opacity:1;;stroke-width:1.5;stroke-linecap:round;stroke-linejoin:round;stroke-miterlimit:2.0999999;stroke-dasharray:none;stroke-opacity:1"
	        d="M 14.5,5 L 14.5,8 L 11.5,8 M 14.5,8 A 4.875,4.875 0 1 1 18.5,8" /> -->
		</g>
		
			<!-- TEXTOS -->
			<text oryx:anchors="top left" font-size="11" id="nodata" x="25" y="10" oryx:fittoelem="timeMeasure"> </text>
			<text oryx:anchors="top left" font-size="11" id="mintime" x="25" y="10" oryx:fittoelem="timeMeasure"> min </text>
    		<text oryx:anchors="top left" font-size="11" id="maxtime" x="25" y="10" oryx:fittoelem="timeMeasure"> max </text>
    		<text oryx:anchors="top left" font-size="11" id="avgtime" x="25" y="10" oryx:fittoelem="timeMeasure"> avg </text>
    		<text oryx:anchors="top left" font-size="11" id="sumtime" x="25" y="10" oryx:fittoelem="timeMeasure"> sum </text>
    		 
    		 
    
    	<text oryx:anchors="top left" font-size="11" id="text" x="30" y="60" oryx:align="top center" stroke="black"></text>
    	<!-- <text font-size="10" id="unitOfMeasure" x="35" y="33" oryx:align="middle center" stroke="black" oryx:fittoelem="baseMeasure"></text> -->
    	
    	<text oryx:anchors="top left" font-size="12" id="singleInstanceAggFunction" x="10" y="45" oryx:align="bottom left" stroke="green" oryx:fittoelem="cyclic"></text>
    	
		<!-- <text oryx:anchors="top left" font-size="12" id="linear" x="25" y="10" oryx:align="bottom left" stroke="green" oryx:fittoelem="timeMeasure">_</text> -->
    
    
    	
    	
    	
    	
    	
    	
    	
    	
  </g>
</svg>