<?xml version="1.0" encoding="UTF-8" standalone="no"?>
<svg
   xmlns="http://www.w3.org/2000/svg"
   xmlns:svg="http://www.w3.org/2000/svg"
   xmlns:oryx="http://www.b3mn.org/oryx"
   xmlns:xlink="http://www.w3.org/1999/xlink"
   width="102"
   height="82"
   version="1.0">
  <defs></defs>
  <oryx:magnets>
  	<oryx:magnet oryx:cx="0" oryx:cy="42" oryx:anchors="left" />
  	<oryx:magnet oryx:cx="24" oryx:cy="58" oryx:anchors="bottom" />
  	<oryx:magnet oryx:cx="48" oryx:cy="42" oryx:anchors="right" />
  	<oryx:magnet oryx:cx="20" oryx:cy="26" oryx:anchors="top" />
	<oryx:magnet oryx:cx="24" oryx:cy="42" oryx:default="yes" />
  </oryx:magnets>
  <g pointer-events="fill" oryx:minimumSize="15 10" oryx:maximumSize="240 160" >
  		<g id="timeAggregatedMeasure">
			
		 	<rect oryx:resize="vertical horizontal"  x="0" y="26" width="48" height="32" stroke="black" stroke-width="1" fill="white" />
			<path oryx:resize="vertical horizontal" fill="none" stroke="black" stroke-width="1" d="M3 53 v5 m 3 -5 v5 m 3 -5 v5 m 3 -10 v10 m 3 -5 v5 m 3 -5 v5 m 3 -5 v5 m 3 -10 v10 m 3 -5 v5 m 3 -5 v5 m 3 -5 v5 m 3 -10 v10 m 3 -5 v5 m 3 -5 v5 m 3 -5 v5"/>
			<path oryx:resize="vertical horizontal" fill="none" stroke="black" stroke-width="1" d="M6 26 v-4 h48 v32 h-6 M 51 49 v5"/>
			<path oryx:resize="vertical horizontal" fill="none" stroke="black" stroke-width="1" d="M 12 22 v-4 h48 v32 h-6 M 57 45 v5"/>
			
			<!-- time icon -->
			
			<path oryx:anchors="top left" fill="#666666" stroke="black" d="M 2 19 h8 v-4 h-8 v4" stroke-width="1"/>
			<path oryx:anchors="top left" fill="none" stroke="black" d="M 2 15 l4 -4 l4 4" stroke-width="1"/>
			<path oryx:anchors="top left" fill="#666666" stroke="black" d="M 2 7 l4 4 l4 -4 h-8" stroke-width="1"/>
			<path oryx:anchors="top left" fill="none" stroke="black" d="M 2 7 v-4 h8 v4" stroke-width="1"/>
			
		</g>
		
		<g id="cyclic">
			<path oryx:anchors="top left" stroke="black"
	       	style="opacity:1;fill:none;fill-opacity:1;;stroke-width:1.5;stroke-linecap:round;stroke-linejoin:round;stroke-miterlimit:2.0999999;stroke-dasharray:none;stroke-opacity:1"
	        d="M 16,4 L 14,5 L 12,4 M 13,5 A 3.875,3.875 0 1 1 20.75,5" />
	        <path oryx:anchors="top left" stroke="black"
	       	style="opacity:1;fill:none;fill-opacity:1;;stroke-width:1.5;stroke-linecap:round;stroke-linejoin:round;stroke-miterlimit:2.0999999;stroke-dasharray:none;stroke-opacity:1"
	        d="M 20.75,7.5 A 3.875,3.875 0 1 1 13,8 M 18.75,8.5 L 20.75,7.5 L 22.75,8.5" />
		</g>
    	
    	<text font-size="12" id="minimum" x="10" y="38" oryx:align="middle left" oryx:fittoelem="timeAggregatedMeasure"> MIN </text>
    	<text font-size="12" id="maximum" x="10" y="38" oryx:align="middle left" oryx:fittoelem="timeAggregatedMeasure"> MAX </text>
    	<text font-size="12" id="average" x="10" y="38" oryx:align="middle left" oryx:fittoelem="timeAggregatedMeasure"> AVG </text>
    	<text font-size="12" id="sum" x="10" y="38" oryx:align="middle left" oryx:fittoelem="timeAggregatedMeasure"> SUM </text>
    	
    	<text font-size="11" id="text" x="30" y="60" oryx:align="top center" stroke="black"></text>
    	
    	<!-- <text font-size="10" id="unitOfMeasure" x="35" y="38" oryx:align="middle center" stroke="black" oryx:fittoelem="aggregateMeasure"></text> -->
    	
  </g>
</svg>